<?xml version="1.0" encoding="UTF-8" standalone="no"?>
<!-- Created with Inkscape (http://www.inkscape.org/) -->

<svg
   xmlns:osb="http://www.openswatchbook.org/uri/2009/osb"
   xmlns:dc="http://purl.org/dc/elements/1.1/"
   xmlns:cc="http://creativecommons.org/ns#"
   xmlns:rdf="http://www.w3.org/1999/02/22-rdf-syntax-ns#"
   xmlns:svg="http://www.w3.org/2000/svg"
   xmlns="http://www.w3.org/2000/svg"
   xmlns:sodipodi="http://sodipodi.sourceforge.net/DTD/sodipodi-0.dtd"
   xmlns:inkscape="http://www.inkscape.org/namespaces/inkscape"
   width="16"
   height="16"
   viewBox="0 0 4.2333332 4.2333335"
   version="1.1"
   id="svg8"
   inkscape:version="0.92.1 r15371"
   sodipodi:docname="_grid.svg"
   inkscape:export-filename="C:\Users\Администратор\Desktop\le_icons\png\_grid.png"
   inkscape:export-xdpi="386"
   inkscape:export-ydpi="386">
  <defs
     id="defs2">
    <linearGradient
       id="linearGradient4747"
       osb:paint="solid">
      <stop
         style="stop-color:#0076ff;stop-opacity:1;"
         offset="0"
         id="stop4745" />
    </linearGradient>
    <linearGradient
       id="linearGradient4739"
       osb:paint="solid">
      <stop
         style="stop-color:#00ff00;stop-opacity:1;"
         offset="0"
         id="stop4737" />
    </linearGradient>
    <linearGradient
       id="linearGradient4731"
       osb:paint="solid">
      <stop
         style="stop-color:#008000;stop-opacity:1;"
         offset="0"
         id="stop4729" />
    </linearGradient>
    <linearGradient
       id="linearGradient4725"
       osb:paint="solid">
      <stop
         style="stop-color:#0076ff;stop-opacity:1;"
         offset="0"
         id="stop4723" />
    </linearGradient>
    <linearGradient
       id="linearGradient4719"
       osb:paint="solid">
      <stop
         style="stop-color:#800000;stop-opacity:1;"
         offset="0"
         id="stop4717" />
    </linearGradient>
    <linearGradient
       id="linearGradient4713"
       osb:paint="solid">
      <stop
         style="stop-color:#000000;stop-opacity:1;"
         offset="0"
         id="stop4711" />
    </linearGradient>
    <linearGradient
       id="linearGradient4557"
       osb:paint="solid">
      <stop
         style="stop-color:#000000;stop-opacity:1;"
         offset="0"
         id="stop4555" />
    </linearGradient>
    <inkscape:perspective
       sodipodi:type="inkscape:persp3d"
       inkscape:vp_x="0 : 2.1166667 : 1"
       inkscape:vp_y="0 : 1000 : 0"
       inkscape:vp_z="4.2333332 : 2.1166667 : 1"
       inkscape:persp3d-origin="2.1166666 : 1.4111112 : 1"
       id="perspective4489" />
  </defs>
  <sodipodi:namedview
     id="base"
     pagecolor="#ffffff"
     bordercolor="#666666"
     borderopacity="1.0"
     inkscape:pageopacity="0.0"
     inkscape:pageshadow="2"
     inkscape:zoom="31.678384"
     inkscape:cx="6.6193941"
     inkscape:cy="4.2466985"
     inkscape:document-units="mm"
     inkscape:current-layer="layer1"
     showgrid="true"
     inkscape:pagecheckerboard="true"
     units="px"
     inkscape:window-width="2560"
     inkscape:window-height="1365"
     inkscape:window-x="-9"
     inkscape:window-y="-9"
     inkscape:window-maximized="1"
     inkscape:snap-global="false">
    <inkscape:grid
       type="xygrid"
       id="grid4485"
       empspacing="8" />
    <inkscape:grid
       type="axonomgrid"
       id="grid4529"
       units="mm"
       empspacing="5" />
  </sodipodi:namedview>
  <metadata
     id="metadata5">
    <rdf:RDF>
      <cc:Work
         rdf:about="">
        <dc:format>image/svg+xml</dc:format>
        <dc:type
           rdf:resource="http://purl.org/dc/dcmitype/StillImage" />
        <dc:title />
      </cc:Work>
    </rdf:RDF>
  </metadata>
  <g
     inkscape:label="Layer 1"
     inkscape:groupmode="layer"
     id="layer1"
     transform="translate(0,-292.76665)">
    <path
       style="fill:none;stroke:#ffffff;stroke-width:0.03267161;stroke-linecap:butt;stroke-linejoin:miter;stroke-miterlimit:4;stroke-dasharray:none;stroke-opacity:0.95471698"
       d="m 1.4246841,296.39866 2.8290613,-1.6338"
       id="path4533"
       inkscape:connector-curvature="0"
       sodipodi:nodetypes="cc" />
    <path
       style="fill:none;stroke:#ffffff;stroke-width:0.03267161;stroke-linecap:butt;stroke-linejoin:miter;stroke-miterlimit:4;stroke-dasharray:none;stroke-opacity:0.95471698"
       d="m 0.71741885,295.99021 2.82906125,-1.6338"
       id="path4535"
       inkscape:connector-curvature="0"
       sodipodi:nodetypes="cc" />
    <path
       style="fill:none;stroke:#ffffff;stroke-width:0.03267161;stroke-linecap:butt;stroke-linejoin:miter;stroke-miterlimit:4;stroke-dasharray:none;stroke-opacity:0.95471698"
       d="M 0.01015354,295.58175 2.8392148,293.97349"
       id="path4537"
       inkscape:connector-curvature="0"
       sodipodi:nodetypes="cc" />
    <path
       style="fill:none;stroke:#ffffff;stroke-width:0.03267161;stroke-linecap:butt;stroke-linejoin:miter;stroke-miterlimit:4;stroke-dasharray:none;stroke-opacity:0.95471698"
       d="m 0.01015354,294.76486 2.82906126,1.6338"
       id="path4543"
       inkscape:connector-curvature="0"
       sodipodi:nodetypes="cc" />
    <path
       style="fill:none;stroke:#ffffff;stroke-width:0.03267161;stroke-linecap:butt;stroke-linejoin:miter;stroke-miterlimit:4;stroke-dasharray:none;stroke-opacity:0.95471698"
       d="m 0.71741885,294.35641 2.82906125,1.6338"
       id="path4545"
       inkscape:connector-curvature="0"
       sodipodi:nodetypes="cc" />
    <path
       style="fill:none;stroke:#ffffff;stroke-width:0.03267161;stroke-linecap:butt;stroke-linejoin:miter;stroke-miterlimit:4;stroke-dasharray:none;stroke-opacity:0.95471698"
       d="m 1.4246841,293.97349 2.8290613,1.60826"
       id="path4547"
       inkscape:connector-curvature="0"
       sodipodi:nodetypes="cc" />
    <g
       id="g4768"
       transform="matrix(1.7462628,0,0,1.7462628,-1.6062774,-219.63263)">
      <path
         inkscape:connector-curvature="0"
         id="path4551"
         d="m 2.1319495,293.84945 v 0.98368"
         style="fill:#00ff00;stroke:#00ff00;stroke-width:0.08167905;stroke-linecap:butt;stroke-linejoin:miter;stroke-miterlimit:4;stroke-dasharray:none;stroke-opacity:1" />
      <path
         inkscape:connector-curvature="0"
         id="path4553"
         d="m 2.1319495,294.83313 0.7072653,0.40844"
         style="fill:#ff0000;fill-opacity:1;stroke:#ff0000;stroke-width:0.08167905;stroke-linecap:butt;stroke-linejoin:miter;stroke-miterlimit:4;stroke-dasharray:none;stroke-opacity:1" />
      <path
         inkscape:connector-curvature="0"
         id="path4561"
         d="m 2.1319495,294.83313 0.7072653,-0.40845"
         style="fill:none;stroke:#0076ff;stroke-width:0.08167905;stroke-linecap:butt;stroke-linejoin:miter;stroke-miterlimit:4;stroke-dasharray:none;stroke-opacity:1" />
      <text
         transform="scale(0.99986442,1.0001356)"
         id="text4565"
         y="295.07614"
         x="2.7770448"
         style="font-style:normal;font-weight:normal;font-size:1.15258205px;line-height:1.25;font-family:sans-serif;letter-spacing:0px;word-spacing:0px;fill:#ff0000;fill-opacity:1;stroke:#800000;stroke-width:0.00816791;stroke-miterlimit:4;stroke-dasharray:none;stroke-opacity:1"
         xml:space="preserve"><tspan
           style="font-size:0.28814551px;fill:#ff0000;stroke:#800000;stroke-width:0.00816791;stroke-miterlimit:4;stroke-dasharray:none;stroke-opacity:1"
           y="295.07614"
           x="2.7770448"
           id="tspan4563"
           sodipodi:role="line">x</tspan></text>
      <text
         transform="scale(0.99986442,1.0001356)"
         id="text4569"
         y="294.32761"
         x="2.7551534"
         style="font-style:normal;font-weight:normal;font-size:1.15258205px;line-height:1.25;font-family:sans-serif;letter-spacing:0px;word-spacing:0px;fill:#0000ff;fill-opacity:1;stroke:#0076ff;stroke-width:0.00816791;stroke-miterlimit:4;stroke-dasharray:none;stroke-opacity:1"
         xml:space="preserve"><tspan
           style="font-size:0.28814551px;fill:#0000ff;fill-opacity:1;stroke:#0076ff;stroke-width:0.00816791;stroke-miterlimit:4;stroke-dasharray:none;stroke-opacity:1"
           y="294.32761"
           x="2.7551534"
           id="tspan4567"
           sodipodi:role="line">z</tspan></text>
      <text
         transform="scale(0.99986442,1.0001356)"
         id="text4573"
         y="293.68851"
         x="2.0584838"
         style="font-style:normal;font-weight:normal;font-size:1.15258205px;line-height:1.25;font-family:sans-serif;letter-spacing:0px;word-spacing:0px;fill:#00ff00;fill-opacity:1;stroke:#008000;stroke-width:0.00816791;stroke-miterlimit:4;stroke-dasharray:none;stroke-opacity:1"
         xml:space="preserve"><tspan
           style="font-size:0.28814551px;fill:#00ff00;fill-opacity:1;stroke:#008000;stroke-width:0.00816791;stroke-miterlimit:4;stroke-dasharray:none;stroke-opacity:1"
           y="293.68851"
           x="2.0584838"
           id="tspan4571"
           sodipodi:role="line">y</tspan></text>
      <path
         inkscape:connector-curvature="0"
         d="m 2.8481489,294.43262 c -0.00447,0.004 -0.0092,0.007 -0.013712,0.0112 -0.00524,0.005 -0.010032,0.0106 -0.014993,0.0151 -0.00569,0.006 -0.010999,0.0129 -0.016487,0.0192 -0.00481,0.006 -0.00931,0.0126 -0.01431,0.0186 -0.00482,0.005 -0.00887,0.0128 -0.013202,0.0191 -0.00261,0.004 -0.0052,0.007 -0.00777,0.0115 -0.00228,0.004 -0.0047,0.008 -0.00704,0.0121 -0.00259,0.003 -0.00391,0.007 -0.00562,0.0107 -6.05e-4,0.002 -0.00183,0.002 -0.00254,0.004 -7.499e-4,0.002 -0.00109,0.002 -0.00212,0.004 -9.718e-4,6.7e-4 -0.00158,0.002 -0.00221,0.002 0,0 -0.052931,0.025 -0.052931,0.025 v 0 c 2.106e-4,-0.002 4.689e-4,-0.003 0.00119,-0.005 2.937e-4,-3.2e-4 5.488e-4,-6.8e-4 8.82e-4,-8.1e-4 8.901e-4,-7.4e-4 0.00143,-5.8e-4 0.00202,-0.002 2.808e-4,-5.3e-4 2.851e-4,-8.1e-4 5.122e-4,-0.002 4.45e-4,-8.1e-4 0.00114,-0.002 0.00181,-0.003 0.00109,-0.002 0.00139,-0.002 0.00214,-0.003 0.00127,-0.002 0.00165,-0.005 0.00352,-0.008 0.00145,-0.002 0.00243,-0.004 0.00366,-0.005 0.0013,-0.002 0.00265,-0.004 0.00357,-0.006 0.00229,-0.004 0.00512,-0.008 0.0078,-0.0119 0.00484,-0.006 0.00904,-0.0132 0.013655,-0.0197 0.00457,-0.006 0.00988,-0.012 0.014066,-0.0187 0.00365,-0.005 0.00765,-0.008 0.011279,-0.0134 8.574e-4,-8.2e-4 0.00159,-0.002 0.00246,-0.003 8.33e-4,-8.2e-4 0.00174,-0.002 0.0026,-0.003 0.00463,-0.005 0.00977,-0.0106 0.014539,-0.0155 9.146e-4,-8.3e-4 0.00352,-0.003 0.00454,-0.004 0.00149,-0.002 0.0032,-0.002 0.00469,-0.003 7.26e-4,-5.9e-4 0.00134,-0.002 0.00205,-0.002 5.596e-4,-4.9e-4 0.00116,-8.1e-4 0.00176,-0.002 0,0 0.054187,-0.022 0.054187,-0.022 z"
         id="path4613"
         style="opacity:1;fill:#0076ff;fill-opacity:1;stroke:#0076ff;stroke-width:0.08167905;stroke-linecap:round;stroke-linejoin:bevel;stroke-miterlimit:4;stroke-dasharray:none;stroke-dashoffset:15;stroke-opacity:1;paint-order:markers stroke fill" />
      <path
         inkscape:connector-curvature="0"
         d="m 2.8066172,294.45137 c -0.00349,5.3e-4 -0.00709,1.8e-4 -0.010567,7.5e-4 -0.00177,3e-4 -0.00305,8.1e-4 -0.00469,0.002 -0.00213,7.8e-4 -0.00429,0.002 -0.00651,0.002 -6.677e-4,1.1e-4 -0.00137,10e-5 -0.00202,3.1e-4 -5.704e-4,1.8e-4 -0.00104,6.1e-4 -0.00158,8.2e-4 -5.66e-4,2.3e-4 -0.00116,4.1e-4 -0.00175,6e-4 -0.00959,0.002 -0.018918,0.005 -0.028025,0.008 -0.00177,7.6e-4 -0.00354,0.002 -0.00531,0.002 -0.00171,6.6e-4 -0.00344,0.002 -0.00512,0.002 -0.00151,6.5e-4 -0.00294,0.002 -0.00446,0.002 -0.00177,7.1e-4 -0.00361,8.2e-4 -0.0054,0.002 -0.017432,0.006 0.00627,-0.002 -0.011687,0.004 -0.013899,0.005 0.00243,-6.9e-4 -0.010893,0.003 -0.00629,0.002 -0.00275,8.2e-4 -0.00879,0.002 -0.0037,8.2e-4 -0.00413,8.2e-4 -0.00788,0.002 -0.00659,7.4e-4 -0.013215,0.002 -0.019839,0.002 -0.00115,3e-5 -0.0023,0 -0.00347,1.2e-4 -0.00216,2.5e-4 -0.00428,8.2e-4 -0.00644,8.2e-4 -0.0032,5.2e-4 -0.00636,8.2e-4 -0.00958,8.2e-4 -0.00112,1.4e-4 -0.00225,1.8e-4 -0.00335,3.9e-4 -0.00101,2e-4 -0.00498,0.002 -0.00605,0.002 -0.00313,7.7e-4 -0.0063,8.3e-4 -0.00949,0.002 -0.00112,2.3e-4 -0.00224,4e-4 -0.00335,6.7e-4 -0.00588,0.002 -6.093e-4,4.5e-4 -0.00654,0.002 -0.00319,6.6e-4 -0.0064,8.1e-4 -0.00957,0.002 -0.00274,7e-4 -0.00561,5.6e-4 -0.00835,8.1e-4 -8.249e-4,1.4e-4 -0.00159,4.8e-4 -0.00242,6.9e-4 -0.00182,4.4e-4 -0.00357,7.1e-4 -0.00541,8.1e-4 0,0 0.046292,-0.035 0.046292,-0.035 v 0 c 0.00536,-8.2e-4 0.01075,-0.002 0.016131,-0.002 0.00656,-8.1e-4 0.012975,-0.002 0.019565,-0.004 0.00635,-8.1e-4 0.012551,-0.003 0.019018,-0.003 0.00652,-8.1e-4 0.012981,-0.002 0.01956,-0.002 0.00643,-5.5e-4 0.012895,-8.2e-4 0.019244,-0.002 0.00889,-0.002 0.017624,-0.005 0.026259,-0.008 0.010764,-0.004 0.021359,-0.008 0.032045,-0.0127 0.0097,-0.003 0.019633,-0.006 0.029388,-0.009 0.00349,-8.1e-4 6.09e-5,-1.1e-4 0.00374,-8.1e-4 0.00277,-5.8e-4 0.00538,-0.002 0.00815,-0.002 0.00544,-8.1e-4 0.010982,-8.1e-4 0.016468,-0.002 0,0 -0.047304,0.0345 -0.047304,0.0345 z"
         id="path4619"
         style="opacity:1;fill:#0076ff;fill-opacity:1;stroke:#0076ff;stroke-width:0.08167905;stroke-linecap:round;stroke-linejoin:bevel;stroke-miterlimit:4;stroke-dasharray:none;stroke-dashoffset:15;stroke-opacity:1;paint-order:markers stroke fill" />
      <path
         sodipodi:nodetypes="ccscccccccccccccccccccccccccc"
         inkscape:connector-curvature="0"
         d="m 2.1565541,293.82683 c 3.962e-4,0.006 7.375e-4,0.0126 9.31e-4,0.0189 4.49e-4,0.008 0.00147,0.0168 0.00322,0.025 8.24e-5,3.9e-4 1.662e-4,7.8e-4 2.517e-4,8.2e-4 0.0019,0.007 0.00388,0.0143 0.00501,0.0216 0.00156,0.008 0.00257,0.0153 0.00374,0.0229 0.00146,0.009 0.00167,0.0186 0.00313,0.0278 0.00169,0.0106 0.00297,0.0204 0.00472,0.0305 0.0019,0.0124 0.00507,0.0245 0.00734,0.0367 0.00216,0.011 0.0047,0.022 0.00764,0.0329 0.0021,0.007 0.00391,0.0137 0.00525,0.0207 0.00124,0.004 0.00252,0.008 0.00364,0.0121 4.725e-4,0.002 9.883e-4,0.004 0.00187,0.007 l -0.029944,0.0164 v 0 c -9.309e-4,-0.002 -0.00167,-0.004 -0.002,-0.007 -0.00111,-0.004 -0.00235,-0.008 -0.00361,-0.0125 -0.00113,-0.007 -0.00287,-0.0139 -0.00469,-0.0207 -0.00293,-0.011 -0.00541,-0.0221 -0.00754,-0.0334 -0.00224,-0.0122 -0.00553,-0.0244 -0.00735,-0.0367 -0.00182,-0.009 -0.00368,-0.0201 -0.00507,-0.0303 -6.156e-4,-0.003 -10e-4,-0.005 -0.00134,-0.009 -5.585e-4,-0.006 -6.562e-4,-0.0123 -0.0018,-0.0184 -0.00129,-0.008 -0.00233,-0.0153 -0.00398,-0.0229 -10e-4,-0.007 -0.00291,-0.0144 -0.00459,-0.0215 -0.00189,-0.008 -0.00337,-0.0177 -0.00407,-0.0265 -1.54e-4,-0.006 -3.723e-4,-0.0123 -0.00112,-0.0187 l 0.030365,-0.0153 z"
         id="path4645"
         style="opacity:1;fill:#00ff00;fill-opacity:1;stroke:#00ff00;stroke-width:0.08891147;stroke-linecap:round;stroke-linejoin:bevel;stroke-miterlimit:4;stroke-dasharray:none;stroke-dashoffset:15;stroke-opacity:1;paint-order:markers stroke fill" />
      <path
         inkscape:connector-curvature="0"
         d="m 2.1247146,293.93738 c -1.709e-4,0.005 -1.308e-4,0.011 -7.219e-4,0.0167 -6.712e-4,0.005 -0.00111,0.009 -0.00135,0.0143 -1.14e-4,0.004 -1.347e-4,0.008 -1.787e-4,0.0122 8e-5,0.005 -9.8e-4,0.009 -0.00148,0.0141 -6.733e-4,0.005 -0.00113,0.009 -0.00204,0.015 -6.941e-4,0.005 -0.00322,0.008 -0.00496,0.0125 -4.804e-4,8.2e-4 -8.902e-4,0.002 -0.00134,0.003 -0.00208,0.006 -0.00392,0.0131 -0.00593,0.0193 -0.002,0.005 -0.00413,0.0106 -0.00542,0.0154 -0.00116,0.005 -0.00297,0.008 -0.00473,0.0132 -0.00158,0.003 -0.00262,0.007 -0.00322,0.0112 -3.156e-4,0.002 -8.247e-4,0.005 -0.00197,0.007 -1.361e-4,3.1e-4 -2.724e-4,5.5e-4 -4.086e-4,8.1e-4 0,0 -0.024554,0.009 -0.024554,0.009 v 0 c 1.204e-4,-3.5e-4 2.402e-4,-5.5e-4 3.611e-4,-8.1e-4 4.141e-4,-8.1e-4 0.00118,-0.002 0.00151,-0.002 4.444e-4,-8.1e-4 3.406e-4,-0.002 8.331e-4,-0.004 5.219e-4,-0.004 0.00151,-0.008 0.00315,-0.0116 0.00163,-0.005 0.00362,-0.008 0.00487,-0.0131 0.00117,-0.005 0.00332,-0.0106 0.00551,-0.0155 0.00212,-0.006 0.00412,-0.0131 0.00605,-0.0195 7.29e-4,-0.002 0.00151,-0.005 0.00239,-0.006 0.00122,-0.002 0.00324,-0.005 0.00382,-0.008 6.51e-5,-3.4e-4 8.82e-4,-0.005 9.311e-4,-0.005 4.16e-4,-0.003 4.822e-4,-0.006 0.00112,-0.009 2.532e-4,-0.002 5.124e-4,-0.005 8.82e-4,-0.007 1.019e-4,-5.7e-4 6.129e-4,-0.003 6.638e-4,-0.005 5.27e-5,-5.6e-4 4.5e-6,-0.002 6.9e-6,-0.002 -4.11e-5,-0.004 -8.08e-5,-0.008 1.242e-4,-0.0122 2.022e-4,-0.005 6.164e-4,-0.009 0.00141,-0.0144 2.648e-4,-0.002 5.862e-4,-0.004 6.732e-4,-0.005 1.594e-4,-0.003 -1.243e-4,-0.007 -1.947e-4,-0.0106 0,0 0.024148,-0.009 0.024148,-0.009 z"
         id="path4649"
         style="opacity:1;fill:#00ff00;fill-opacity:1;stroke:#00ff00;stroke-width:0.08167905;stroke-linecap:round;stroke-linejoin:bevel;stroke-miterlimit:4;stroke-dasharray:none;stroke-dashoffset:15;stroke-opacity:1;paint-order:markers stroke fill" />
      <path
         inkscape:connector-curvature="0"
         d="m 2.8053393,295.24623 c -0.00585,-0.003 -0.01182,-0.006 -0.017835,-0.009 -9.554e-4,-4.8e-4 -0.00193,-8.2e-4 -0.00288,-0.002 -0.00158,-8.2e-4 -0.00372,-0.002 -0.00535,-0.003 -0.00281,-0.002 -0.00574,-0.002 -0.0086,-0.004 -0.00514,-0.002 -0.010345,-0.004 -0.015519,-0.006 -0.00724,-0.003 -0.015134,-0.005 -0.022884,-0.006 -0.00153,-4.1e-4 -0.00308,-7.8e-4 -0.0046,-0.002 -0.00219,-6.4e-4 -0.010094,-0.003 -0.011472,-0.003 -0.010892,-0.003 -0.021985,-0.005 -0.033073,-0.007 -0.015862,-0.003 -0.031878,-0.005 -0.047987,-0.007 -0.029007,-0.003 0.00862,8.1e-4 -0.017067,-0.002 -0.00895,-8.2e-4 -0.017883,-0.002 -0.026826,-0.003 -0.00533,-5.8e-4 -0.010688,-6.1e-4 -0.01604,-6.6e-4 -0.00312,0 -0.00159,0 -0.00454,3e-5 0,0 0.025015,-0.0181 0.025015,-0.0181 v 0 c 0.00291,3e-5 0.00141,1e-5 0.00448,6e-5 0.00541,10e-5 0.010836,2.2e-4 0.016198,8.1e-4 0.00866,0.002 0.017335,0.002 0.025997,0.004 0.021504,0.003 0.043067,0.005 0.064296,0.0106 0.017023,0.003 0.033963,0.006 0.0506,0.0116 0.00794,0.002 0.015957,0.003 0.023423,0.007 0.00526,0.002 0.010461,0.004 0.015575,0.006 0.00573,0.002 0.011362,0.005 0.016843,0.008 0.00608,0.003 0.012196,0.005 0.018279,0.009 0,0 -0.026032,0.0169 -0.026032,0.0169 z"
         id="path4673"
         style="opacity:1;fill:#ff0000;fill-opacity:1;stroke:#ff0000;stroke-width:0.08167905;stroke-linecap:round;stroke-linejoin:bevel;stroke-miterlimit:4;stroke-dasharray:none;stroke-dashoffset:15;stroke-opacity:1;paint-order:markers stroke fill" />
      <path
         inkscape:connector-curvature="0"
         d="m 2.6981783,295.07148 c 0.00448,0.008 0.010269,0.015 0.015663,0.0223 0.00541,0.007 0.010525,0.0155 0.015935,0.0233 0.00556,0.007 0.01114,0.0154 0.016924,0.023 0.0038,0.005 0.0074,0.009 0.011362,0.0148 0.0018,0.002 0.00371,0.004 0.00555,0.006 0.00526,0.005 0.010001,0.0119 0.014763,0.0182 0.00365,0.005 0.00762,0.009 0.011726,0.0141 6.549e-4,7e-4 0.00127,0.002 0.00196,0.002 6.094e-4,5.8e-4 0.00131,8.2e-4 0.00191,0.002 0.00253,0.002 0.00488,0.005 0.00751,0.007 0.00337,0.002 0.00598,0.006 0.00925,0.009 0.00262,0.002 0.00517,0.005 0.00758,0.008 0.00105,6.6e-4 0.00184,0.002 0.00295,0.002 3.263e-4,1.6e-4 7.087e-4,1.8e-4 0.00103,3.6e-4 8.167e-4,4.3e-4 0.00152,8.2e-4 0.0023,0.002 2.917e-4,10e-5 5.856e-4,2e-4 8.739e-4,3e-4 0,0 -0.025985,0.0172 -0.025985,0.0172 v 0 c -3.436e-4,-2.1e-4 -6.893e-4,-4.1e-4 -0.00103,-6.2e-4 -0.00238,-0.002 -0.0049,-0.002 -0.00677,-0.005 -0.00223,-0.002 -0.00476,-0.005 -0.00726,-0.007 -0.00313,-0.003 -0.00591,-0.006 -0.00916,-0.009 -0.00395,-0.003 -0.00779,-0.007 -0.011479,-0.0112 -0.00414,-0.005 -0.00818,-0.009 -0.011786,-0.0144 -0.00463,-0.006 -0.00933,-0.0124 -0.014483,-0.0181 -8.33e-4,-8.1e-4 -0.00486,-0.005 -0.00571,-0.006 -0.00391,-0.005 -0.00732,-0.009 -0.011172,-0.0148 -0.00589,-0.007 -0.011574,-0.0152 -0.017081,-0.0231 -0.00531,-0.007 -0.010634,-0.0154 -0.015913,-0.0231 -0.00543,-0.007 -0.011078,-0.0147 -0.016181,-0.0223 0,0 0.026676,-0.0154 0.026676,-0.0154 z"
         id="path4709"
         style="opacity:1;fill:#ff0000;fill-opacity:1;stroke:#ff0000;stroke-width:0.08167905;stroke-linecap:round;stroke-linejoin:bevel;stroke-miterlimit:4;stroke-dasharray:none;stroke-dashoffset:15;stroke-opacity:1;paint-order:markers stroke fill" />
    </g>
  </g>
</svg>
