<?xml version="1.0" encoding="UTF-8" standalone="no"?>
<!-- Created with Inkscape (http://www.inkscape.org/) -->

<svg
   xmlns:osb="http://www.openswatchbook.org/uri/2009/osb"
   xmlns:dc="http://purl.org/dc/elements/1.1/"
   xmlns:cc="http://creativecommons.org/ns#"
   xmlns:rdf="http://www.w3.org/1999/02/22-rdf-syntax-ns#"
   xmlns:svg="http://www.w3.org/2000/svg"
   xmlns="http://www.w3.org/2000/svg"
   xmlns:sodipodi="http://sodipodi.sourceforge.net/DTD/sodipodi-0.dtd"
   xmlns:inkscape="http://www.inkscape.org/namespaces/inkscape"
   version="1.1"
   id="svg4485"
   width="16"
   height="16"
   viewBox="0 0 16 16"
   sodipodi:docname="_move.svg"
   inkscape:version="0.92.1 r15371"
   inkscape:export-filename="C:\Users\Администратор\Desktop\le_icons\png\_move.png"
   inkscape:export-xdpi="386.60965"
   inkscape:export-ydpi="386.60965">
  <metadata
     id="metadata4491">
    <rdf:RDF>
      <cc:Work
         rdf:about="">
        <dc:format>image/svg+xml</dc:format>
        <dc:type
           rdf:resource="http://purl.org/dc/dcmitype/StillImage" />
        <dc:title />
      </cc:Work>
    </rdf:RDF>
  </metadata>
  <defs
     id="defs4489">
    <linearGradient
       id="linearGradient6921"
       osb:paint="solid">
      <stop
         style="stop-color:#ffffff;stop-opacity:1;"
         offset="0"
         id="stop6919" />
    </linearGradient>
  </defs>
  <sodipodi:namedview
     pagecolor="#ffffff"
     bordercolor="#666666"
     borderopacity="1"
     objecttolerance="10"
     gridtolerance="10"
     guidetolerance="10"
     inkscape:pageopacity="0"
     inkscape:pageshadow="2"
     inkscape:window-width="2560"
     inkscape:window-height="1365"
     id="namedview4487"
     showgrid="true"
     inkscape:zoom="31.359375"
     inkscape:cx="5.2076796"
     inkscape:cy="8.8211528"
     inkscape:window-x="-9"
     inkscape:window-y="-9"
     inkscape:window-maximized="1"
     inkscape:current-layer="g4578"
     inkscape:snap-bbox="true"
     inkscape:pagecheckerboard="true">
    <inkscape:grid
       type="xygrid"
       id="grid4551"
       empspacing="8" />
  </sodipodi:namedview>
  <g
     id="g4627">
    <g
       id="g4578"
       transform="matrix(0.88288881,0,0,0.88288881,0.93688952,0.05400071)">
      <path
         id="path4499"
         d="M 8,0 4,5 h 8 z m 4,5 v 8 l 5,-4 z m 0,8 H 4 l 4,5 z M 4,13 V 5 L -1,9 Z M 8,2 c 0.942809,0 2,2 2,2 H 6 C 6,4 7.057191,2 8,2 Z M 3,7 v 4 C 3,11 1,9.9428089 1,9 1,8.057191 3,7 3,7 Z m 10,0 c 0,0 2,1.0571907 2,2 0,0.942809 -2,2 -2,2 z m -7,7 h 4 c 0,0 -1.057191,2 -2,2 -0.942809,0 -2,-2 -2,-2 z"
         style="fill:#9d0a0e;fill-opacity:1"
         inkscape:connector-curvature="0" />
      <path
         inkscape:connector-curvature="0"
         id="path4556"
         d="M 9.003953,10.495802 V 10.003661 L 9.0841509,9.7683801 C 9.1764073,9.4977225 9.2135854,9.4276087 9.32271,9.3184842 9.4247887,9.2164054 9.5074681,9.1727657 9.7672539,9.0838456 l 0.213226,-0.072984 h 0.5082491 0.508248 v 0.4909479 0.490948 l -0.07033,0.2096895 c -0.08636,0.257479 -0.149948,0.379394 -0.250148,0.479595 -0.101152,0.101151 -0.194782,0.15028 -0.448735,0.235457 l -0.210027,0.07044 H 9.5108452 9.003953 Z"
         style="opacity:0;vector-effect:none;fill:#ffffff;fill-opacity:1;stroke:#4a4a4a;stroke-width:0;stroke-linecap:butt;stroke-linejoin:miter;stroke-miterlimit:4;stroke-dasharray:none;stroke-dashoffset:0;stroke-opacity:1" />
      <path
         inkscape:connector-curvature="0"
         id="path4596"
         d="M 5.7498185,10.910304 C 5.4900854,10.819381 5.4180299,10.779214 5.3102828,10.665287 5.2076554,10.556774 5.1690229,10.479577 5.0742654,10.193668 l -0.07565,-0.2282543 0.00713,-0.3058757 c 0.00767,-0.3288433 0.021128,-0.3954174 0.1011491,-0.5003297 0.022295,-0.02923 0.07776,-0.072692 0.1232547,-0.096583 0.08149,-0.042791 0.087867,-0.043518 0.4294191,-0.048947 l 0.3467008,-0.00551 0.1794576,0.058924 c 0.2569822,0.084379 0.396977,0.154835 0.4874761,0.245334 0.1083215,0.1083216 0.1495574,0.1861423 0.2425851,0.4578099 l 0.081203,0.2371378 -0.00533,0.326855 c -0.00494,0.303196 -0.00807,0.332967 -0.043128,0.411257 -0.021514,0.04804 -0.065715,0.108297 -0.1026019,0.139871 -0.1040934,0.0891 -0.1778604,0.102706 -0.5514032,0.101706 l -0.3279482,-8.77e-4 z"
         style="opacity:0;vector-effect:none;fill:#000000;fill-opacity:1;stroke:#4a4a4a;stroke-width:0;stroke-linecap:butt;stroke-linejoin:miter;stroke-miterlimit:4;stroke-dasharray:none;stroke-dashoffset:0;stroke-opacity:1" />
      <path
         inkscape:connector-curvature="0"
         id="path4598"
         d="M 5.7498185,10.910304 C 5.4900854,10.819381 5.4180299,10.779214 5.3102828,10.665287 5.2076554,10.556774 5.1690229,10.479577 5.0742654,10.193668 l -0.07565,-0.2282543 0.00713,-0.3058757 c 0.00767,-0.3288433 0.021128,-0.3954174 0.1011491,-0.5003297 0.022295,-0.02923 0.07776,-0.072692 0.1232547,-0.096583 0.08149,-0.042791 0.087867,-0.043518 0.4294191,-0.048947 l 0.3467008,-0.00551 0.1794576,0.058924 c 0.2569822,0.084379 0.396977,0.154835 0.4874761,0.245334 0.1083215,0.1083216 0.1495574,0.1861423 0.2425851,0.4578099 l 0.081203,0.2371378 -0.00533,0.326855 c -0.00494,0.303196 -0.00807,0.332967 -0.043128,0.411257 -0.021514,0.04804 -0.065715,0.108297 -0.1026019,0.139871 -0.1040934,0.0891 -0.1778604,0.102706 -0.5514032,0.101706 l -0.3279482,-8.77e-4 z"
         style="opacity:0;vector-effect:none;fill:#000000;fill-opacity:1;stroke:#4a4a4a;stroke-width:0;stroke-linecap:butt;stroke-linejoin:miter;stroke-miterlimit:4;stroke-dasharray:none;stroke-dashoffset:0;stroke-opacity:1" />
      <path
         inkscape:connector-curvature="0"
         id="path4529"
         d="M 2.7627194,10.85439 C 2.4771238,10.682506 2.3935701,10.628054 2.1736881,10.470521 1.3538592,9.8831574 0.94561045,9.3293381 1.0164157,8.9005963 1.092203,8.4416868 1.5847155,7.9076446 2.4606836,7.3345447 2.5834539,7.2542225 2.7538575,7.1483289 2.8393582,7.0992255 L 2.9948141,7.0099465 V 8.99427 c 0,1.091378 -0.00579,1.984323 -0.012862,1.984323 -0.00707,0 -0.1057288,-0.05589 -0.2192327,-0.124203 z"
         style="opacity:1;vector-effect:none;fill:#ff0000;fill-opacity:0.99622641;stroke:#4a4a4a;stroke-width:0;stroke-linecap:butt;stroke-linejoin:miter;stroke-miterlimit:4;stroke-dasharray:none;stroke-dashoffset:0;stroke-opacity:1" />
      <path
         inkscape:connector-curvature="0"
         id="path4531"
         d="m 13.007769,9.0032191 c 0,-1.1265343 0.006,-1.9787861 0.01401,-1.9787861 0.01792,0 0.43501,0.250645 0.591868,0.3556764 0.598074,0.4004666 1.043128,0.8185196 1.23778,1.1626844 0.127494,0.2254236 0.166662,0.4674651 0.10795,0.6670861 -0.119196,0.405264 -0.576836,0.8873931 -1.313841,1.3841461 -0.224017,0.150991 -0.557913,0.357336 -0.611488,0.377895 -0.02432,0.0093 -0.02628,-0.137234 -0.02628,-1.9687019 z"
         style="opacity:0.98600003;vector-effect:none;fill:#ff0000;fill-opacity:1;stroke:#4a4a4a;stroke-width:0;stroke-linecap:butt;stroke-linejoin:miter;stroke-miterlimit:4;stroke-dasharray:none;stroke-dashoffset:0;stroke-opacity:1" />
      <path
         inkscape:connector-curvature="0"
         id="path4533"
         d="M 6.0990038,3.83958 C 6.6054011,2.9578214 7.220145,2.2737981 7.6797455,2.0806944 7.8480604,2.009976 7.9861096,1.9926683 8.1367806,2.0233945 8.2837407,2.053364 8.4755158,2.1450254 8.6310872,2.2596549 8.7923061,2.3784457 9.1330674,2.7287165 9.3087155,2.9561935 9.5357224,3.2501839 9.9226813,3.8410183 9.9714433,3.96809 9.9811133,3.993299 9.8538042,3.995036 7.9957541,3.995036 H 6.0097248 Z"
         style="opacity:1;vector-effect:none;fill:#ff0000;fill-opacity:1;stroke:#4a4a4a;stroke-width:0;stroke-linecap:butt;stroke-linejoin:miter;stroke-miterlimit:4;stroke-dasharray:none;stroke-dashoffset:0;stroke-opacity:1" />
      <path
         inkscape:connector-curvature="0"
         id="path4535"
         d="M 7.7780727,15.954949 C 7.3760607,15.824725 6.9159213,15.391335 6.4316139,14.686765 6.2938825,14.486393 6.0242113,14.046368 6.0242113,14.022001 c 0,-0.008 0.8522518,-0.01401 1.978786,-0.01401 1.8314681,0 1.9780353,0.002 1.9687016,0.02628 -0.03147,0.08201 -0.3588504,0.597312 -0.5252382,0.826735 -0.2533991,0.349398 -0.5780732,0.700957 -0.7994293,0.865627 -0.1339214,0.09963 -0.3187626,0.198082 -0.4373732,0.232968 -0.1152322,0.03389 -0.3193932,0.03169 -0.4315855,-0.0047 z"
         style="opacity:1;vector-effect:none;fill:#ff0000;fill-opacity:1;stroke:#4a4a4a;stroke-width:0;stroke-linecap:butt;stroke-linejoin:miter;stroke-miterlimit:4;stroke-dasharray:none;stroke-dashoffset:0;stroke-opacity:1" />
      <path
         style="opacity:1;vector-effect:none;fill:#008080;fill-opacity:1;stroke:#4a4a4a;stroke-width:0.42817461;stroke-linecap:round;stroke-linejoin:round;stroke-miterlimit:4;stroke-dasharray:none;stroke-dashoffset:0;stroke-opacity:1;paint-order:markers fill stroke"
         d="m 6.0062691,9.0081683 v -2.141845 h 2.0090896 2.0090893 v 2.141845 2.1418447 H 8.0153587 6.0062691 Z"
         id="path5267"
         inkscape:connector-curvature="0" />
    </g>
  </g>
</svg>
